<svg width="759" height="759" viewBox="0 0 759 759" fill="none" xmlns="http://www.w3.org/2000/svg">
<path d="M379 603.5C252 563.5 236.5 371 307.5 197.5C248.095 272.843 107.05 592.979 257.5 448C268 503.5 240 546.5 289.5 613.5C289.5 613.5 193 647.5 208.5 656.5C224 665.5 328.5 651 328.5 651C338.302 647.606 338.532 640.8 335 625C352.062 619.72 361.723 614.984 379 603.5Z" fill="black"/>
<path d="M389 440C465 547.5 389 601 389 601C425.928 617.524 445.835 621.759 480.5 624C473.898 633.095 473 638 480.5 646.5C488 655 583 665.5 576.5 652.5C570 639.5 519 610 519 610C562.5 544 443.5 460.5 413 355C493 281 668.5 140 618.5 134C568.5 128 342 291.5 342 291.5C342 291.5 313 332.5 389 440Z" fill="black"/>
<path d="M274 221C274 84.5 379 71 434 121.5C440 127.009 471.5 116 492 138.5C418.5 157.5 387.888 187.017 390.5 235.5C379.679 242.519 366.588 255.851 361.5 235.5C358.5 223.5 385.5 181.5 351 164.5C316.5 147.5 274 221 274 221ZM375.5 113C369.701 113 365 117.701 365 123.5C365 129.299 369.701 134 375.5 134C381.299 134 386 129.299 386 123.5C386 117.701 381.299 113 375.5 113Z" fill="black"/>
</svg>
